<svg xmlns="http://www.w3.org/2000/svg" viewBox="0 0 872 152"><g><path d="M50.5 39.4v36.3h39.3v5.2H50.5v39.7h-6.3V34.2H96v5.2H50.5zm121.4 81.1h-4.8c-.6 0-1-.2-1.4-.5s-.7-.7-.9-1.2l-10.1-25.1h-42.4l-10.1 25.1c-.2.4-.4.8-.9 1.2-.4.3-.9.5-1.5.5H95l35.3-86.3h6.2l35.4 86.3zm-19.1-31.3l-17.6-43.6c-.6-1.4-1.2-3.1-1.8-5.1-.2 1-.5 1.9-.8 2.8-.3.9-.6 1.7-.9 2.4l-17.6 43.6h38.7v-.1zm75.4-44.5c-.4.7-.9 1-1.6 1-.5 0-1.2-.4-2-1.1-.8-.8-2-1.6-3.4-2.5s-3.2-1.8-5.3-2.5c-2.1-.8-4.8-1.2-7.9-1.2-3.1 0-5.9.4-8.3 1.3-2.4.9-4.4 2.1-6 3.7-1.6 1.5-2.8 3.3-3.7 5.4-.8 2-1.3 4.2-1.3 6.4 0 2.9.6 5.3 1.9 7.3 1.2 1.9 2.9 3.5 4.9 4.9 2 1.3 4.3 2.5 6.9 3.4 2.6.9 5.2 1.8 8 2.7 2.7.9 5.4 1.9 8 3s4.9 2.4 6.9 4.1c2 1.6 3.7 3.6 4.9 6s1.9 5.3 1.9 8.9-.6 7-1.9 10.2c-1.2 3.2-3 6-5.4 8.3-2.4 2.4-5.2 4.2-8.7 5.6s-7.3 2-11.7 2c-5.7 0-10.6-1-14.7-3s-7.7-4.8-10.8-8.3l1.7-2.7c.5-.6 1.1-.9 1.7-.9.4 0 .8.2 1.4.7.6.5 1.3 1.1 2.1 1.8s1.8 1.5 2.9 2.3c1.1.8 2.5 1.6 4 2.3 1.5.7 3.2 1.3 5.2 1.8s4.2.7 6.6.7c3.4 0 6.5-.5 9.2-1.6 2.7-1 5-2.4 6.8-4.2 1.9-1.8 3.3-3.9 4.2-6.4 1-2.5 1.5-5.1 1.5-7.9 0-3.1-.6-5.6-1.9-7.5-1.2-2-2.9-3.6-4.9-4.9s-4.3-2.4-6.9-3.3c-2.6-.9-5.2-1.8-8-2.6-2.7-.9-5.4-1.8-8-2.9s-4.9-2.4-6.9-4.1c-2-1.6-3.7-3.7-4.9-6.2s-1.9-5.5-1.9-9.2c0-2.9.5-5.7 1.6-8.4s2.7-5.1 4.8-7.1c2.1-2.1 4.7-3.7 7.8-4.9s6.7-1.9 10.6-1.9c4.5 0 8.5.7 12 2.1 3.6 1.4 6.8 3.6 9.7 6.5l-1.1 2.9zm89.9-10.5v86.3h-6.3V79.2h-54v41.4h-6.3V34.2h6.3v40.3h54V34.2h6.3zm31.8 86.3h-6.3V34.2h6.3v86.3zm102.2-43.1c0 6.7-1 12.7-3 18.1s-4.8 10.1-8.4 13.9-8 6.8-13 8.9c-5.1 2.1-10.6 3.1-16.7 3.1s-11.7-1-16.7-3.1-9.4-5.1-13-8.9-6.4-8.5-8.4-13.9-3-11.5-3-18.1 1-12.7 3-18.1 4.8-10.1 8.4-13.9c3.6-3.8 8-6.8 13-8.9 5-2.1 10.6-3.2 16.7-3.2s11.7 1 16.7 3.1c5.1 2.1 9.4 5.1 13 8.9 3.6 3.9 6.4 8.5 8.4 13.9 2 5.5 3 11.5 3 18.2zm-6.5 0c0-6-.8-11.4-2.5-16.2s-4-8.9-7.1-12.2c-3-3.3-6.7-5.9-11-7.7s-9-2.7-14.2-2.7c-5.1 0-9.8.9-14.1 2.7-4.3 1.8-7.9 4.3-11 7.7-3.1 3.3-5.5 7.4-7.1 12.2-1.7 4.8-2.5 10.2-2.5 16.2 0 6.1.8 11.5 2.5 16.3 1.7 4.8 4.1 8.8 7.1 12.2 3.1 3.3 6.7 5.9 11 7.6s9 2.6 14.1 2.6c5.2 0 9.9-.9 14.2-2.6 4.3-1.7 7.9-4.3 11-7.6s5.4-7.4 7.1-12.2c1.7-4.9 2.5-10.3 2.5-16.3zm93-43.2v86.3h-2.9c-.5 0-1-.1-1.3-.3s-.7-.5-1-.9l-56.1-74.9c.1 1.2.2 2.4.2 3.5v72.7H472V34.2h3.1c.6 0 1 .1 1.3.2.3.1.6.5 1 .9l55.9 74.7c-.1-1.2-.2-2.4-.2-3.5V34.2h5.5zm50.1-1.2c5.6 0 10.5.7 14.6 2s7.6 3.1 10.3 5.5 4.7 5.3 6.1 8.6c1.3 3.4 2 7.1 2 11.2s-.7 7.9-2.1 11.3c-1.4 3.4-3.5 6.4-6.3 8.9s-6.2 4.4-10.3 5.8-8.9 2-14.2 2h-13.5v32.3h-13V33h26.4zm0 45c3.3 0 6.2-.4 8.7-1.3s4.6-2.1 6.3-3.6c1.7-1.6 3-3.4 3.8-5.6.9-2.2 1.3-4.6 1.3-7.2 0-5.3-1.7-9.5-5-12.6-3.3-3-8.3-4.6-15.1-4.6h-13.5V78h13.5zm113.4 42.5h-10c-1.1 0-2.1-.3-2.8-.9s-1.3-1.3-1.6-2.2L680 97.1h-38.6l-7.7 20.3c-.3.8-.8 1.5-1.6 2.1s-1.7.9-2.8.9h-10L654 33h13.1l35 87.5zm-25.7-32.6l-13-34c-.9-2.3-1.9-5.2-2.8-8.8-.4 1.7-.9 3.4-1.4 4.9s-.9 2.8-1.4 4l-12.9 33.9h31.5zm81.9-40.7c-.4.7-.8 1.2-1.3 1.5-.4.3-1 .5-1.7.5s-1.6-.3-2.5-1-2.1-1.4-3.5-2.3c-1.4-.8-3.1-1.6-5-2.3s-4.3-1-7-1c-2.6 0-4.8.3-6.7 1s-3.5 1.6-4.8 2.7c-1.3 1.2-2.3 2.5-3 4.1s-1 3.3-1 5.1c0 2.4.6 4.3 1.8 5.9 1.2 1.5 2.8 2.9 4.7 4s4.2 2.1 6.6 2.9c2.5.8 5 1.7 7.6 2.5 2.6.9 5.1 1.9 7.6 3s4.7 2.6 6.6 4.3c2 1.7 3.5 3.8 4.7 6.3s1.8 5.6 1.8 9.2c0 3.9-.7 7.5-2 10.9s-3.2 6.3-5.8 8.8-5.6 4.5-9.3 5.9-7.9 2.2-12.5 2.2c-2.8 0-5.5-.3-8.2-.8-2.6-.5-5.1-1.3-7.5-2.3s-4.6-2.2-6.6-3.6-3.9-3-5.5-4.7l3.7-6.2c.4-.5.8-.9 1.3-1.2.5-.3 1.1-.5 1.7-.5.9 0 1.8.4 3 1.3 1.1.9 2.5 1.9 4.1 3s3.6 2.1 5.9 3c2.3.9 5.1 1.3 8.4 1.3 2.7 0 5.1-.4 7.2-1.1 2.1-.7 3.9-1.7 5.3-3s2.6-2.9 3.3-4.8 1.2-3.9 1.2-6.2c0-2.6-.6-4.7-1.8-6.3-1.2-1.6-2.7-3-4.7-4.1s-4.2-2-6.6-2.8c-2.5-.8-5-1.6-7.6-2.4s-5.1-1.8-7.6-2.9-4.7-2.5-6.6-4.3-3.5-4-4.7-6.6c-1.2-2.7-1.8-5.9-1.8-9.9 0-3.1.6-6.2 1.8-9.1 1.2-2.9 3-5.5 5.3-7.8s5.2-4.1 8.6-5.4c3.4-1.4 7.3-2 11.7-2 4.9 0 9.4.8 13.6 2.3 4.1 1.6 7.7 3.8 10.8 6.7l-3 6.2zm66.4 0c-.4.7-.8 1.2-1.3 1.5-.4.3-1 .5-1.7.5s-1.6-.3-2.5-1-2.1-1.4-3.5-2.3c-1.4-.8-3.1-1.6-5-2.3s-4.3-1-7-1c-2.6 0-4.8.3-6.7 1s-3.5 1.6-4.8 2.7c-1.3 1.2-2.3 2.5-3 4.1s-1 3.3-1 5.1c0 2.4.6 4.3 1.8 5.9 1.2 1.5 2.8 2.9 4.7 4s4.2 2.1 6.6 2.9c2.5.8 5 1.7 7.6 2.5 2.6.9 5.1 1.9 7.6 3s4.7 2.6 6.6 4.3c2 1.7 3.5 3.8 4.7 6.3s1.8 5.6 1.8 9.2c0 3.9-.7 7.5-2 10.9s-3.2 6.3-5.8 8.8-5.6 4.5-9.3 5.9-7.9 2.2-12.5 2.2c-2.8 0-5.5-.3-8.2-.8-2.6-.5-5.1-1.3-7.5-2.3s-4.6-2.2-6.6-3.6-3.9-3-5.5-4.7l3.7-6.2c.4-.5.8-.9 1.3-1.2.5-.3 1.1-.5 1.7-.5.9 0 1.8.4 3 1.3 1.1.9 2.5 1.9 4.1 3s3.6 2.1 5.9 3c2.3.9 5.1 1.3 8.4 1.3 2.7 0 5.1-.4 7.2-1.1 2.1-.7 3.9-1.7 5.3-3s2.6-2.9 3.3-4.8 1.2-3.9 1.2-6.2c0-2.6-.6-4.7-1.8-6.3-1.2-1.6-2.7-3-4.7-4.1s-4.2-2-6.6-2.8c-2.5-.8-5-1.6-7.6-2.4s-5.1-1.8-7.6-2.9-4.7-2.5-6.6-4.3-3.5-4-4.7-6.6c-1.2-2.7-1.8-5.9-1.8-9.9 0-3.1.6-6.2 1.8-9.1 1.2-2.9 3-5.5 5.3-7.8s5.2-4.1 8.6-5.4c3.4-1.4 7.3-2 11.7-2 4.9 0 9.4.8 13.6 2.3 4.1 1.6 7.7 3.8 10.8 6.7l-3 6.2z"/></g></svg>