<?xml version="1.0" encoding="UTF-8"?>
<svg id="Layer_2" data-name="Layer 2" xmlns="http://www.w3.org/2000/svg" viewBox="0 0 23.38 29.53">
  <g id="Layer_1-2" data-name="Layer 1">
    <path d="m23.36,28.62l-3.1-20.18c-.08-.38-.38-.68-.79-.68h-2.34v-2.34c0-1.47-.6-2.83-1.59-3.81-.98-1.02-2.34-1.62-3.86-1.62s-2.87.6-3.86,1.62c-.98.98-1.59,2.34-1.59,3.81v2.34h-2.34c-.38,0-.72.3-.76.68L0,28.62v.11c0,.45.34.79.79.79h21.93c.42-.08.72-.45.64-.91ZM7.79,5.43c0-1.06.45-2.04,1.13-2.72.72-.72,1.7-1.17,2.76-1.17s2.04.45,2.76,1.17c.68.68,1.13,1.66,1.13,2.72v2.34h-7.79v-2.34ZM1.7,27.98l2.87-18.67h1.66v1.19s-.2,1.15.78,1.15.78-1.15.78-1.15v-1.19h7.81v1.19s-.2,1.15.78,1.15.78-1.15.78-1.15v-1.19h1.64l2.91,18.67H1.7Z"/>
  </g>
</svg>